# xmcd
#
# Track frame offsets: 
#        150
#        17747
#        35180
#        49082
#        63559
#        79717
#        98751
#        116171
#        136269
#        158307
#        173835
#        189414
#
# Disc length: 2716 seconds
#
# Revision: 0
# Processed by: cddbd v1.5.2PL0 Copyright (c) Steve Scherf et al.
# Submitted via: ExactAudioCopy v1.0b1
#
DISCID=970a9a0c
DTITLE=Kokayi - Mass Instructions
DYEAR=2007
DGENRE=Hip-Hop
TTITLE0=Knowus Mayne
TTITLE1=DVB
TTITLE2=God In You
TTITLE3=GameSteady
TTITLE4=Babylon (Hey Nah)
TTITLE5=Life
TTITLE6=ArgYou!
TTITLE7=Love Ya Babe
TTITLE8=Stress!! (feat. Rona Rawls)
TTITLE9=SunSon(Dun)
TTITLE10=Salvation (? Got the Gun)
TTITLE11=Wellin' (feat. Thaione Davis)
EXTD=
EXTT0=
EXTT1=
EXTT2=
EXTT3=
EXTT4=
EXTT5=
EXTT6=
EXTT7=
EXTT8=
EXTT9=
EXTT10=
EXTT11=
PLAYORDER=
